<svg width="22" height="22" viewBox="0 0 22 22" fill="none" xmlns="http://www.w3.org/2000/svg">
<path fill-rule="evenodd" clip-rule="evenodd" d="M18.7148 3.53517C17.8951 2.71539 16.7842 2.25331 15.6248 2.24984H6.87516C5.71582 2.25331 4.60495 2.71539 3.78517 3.53517C2.96539 4.35495 2.50331 5.46582 2.49984 6.62516V15.3748C2.50331 16.5342 2.96539 17.6451 3.78517 18.4648C4.60495 19.2846 5.71582 19.7467 6.87516 19.7502H15.6248C16.7842 19.7467 17.8951 19.2846 18.7148 18.4648C19.5346 17.6451 19.9967 16.5342 20.0002 15.3748V6.62516C19.9967 5.46582 19.5346 4.35495 18.7148 3.53517ZM6.87516 0.5H15.6248C18.9937 0.5 21.75 3.25625 21.75 6.62516V15.3748C21.75 18.7437 18.9937 21.5 15.6248 21.5H6.87516C3.50625 21.5 0.75 18.7437 0.75 15.3748V6.62516C0.75 3.25625 3.50625 0.5 6.87516 0.5ZM16.2082 6.40396C16.424 6.54818 16.6778 6.62515 16.9373 6.62515C17.1098 6.62552 17.2806 6.59183 17.4401 6.526C17.5995 6.46017 17.7443 6.36351 17.8663 6.24156C17.9882 6.11961 18.0849 5.97477 18.1507 5.81536C18.2165 5.65596 18.2502 5.48512 18.2498 5.31265C18.2498 5.05306 18.1729 4.79931 18.0286 4.58347C17.8844 4.36763 17.6794 4.1994 17.4396 4.10006C17.1998 4.00072 16.9359 3.97473 16.6813 4.02537C16.4267 4.07602 16.1928 4.20102 16.0093 4.38458C15.8257 4.56813 15.7007 4.802 15.6501 5.0566C15.5994 5.3112 15.6254 5.5751 15.7248 5.81492C15.8241 6.05475 15.9923 6.25974 16.2082 6.40396ZM13.1946 8.08972C12.619 7.70512 11.9423 7.49984 11.25 7.49984C10.322 7.50083 9.43231 7.86992 8.77611 8.52611C8.11992 9.1823 7.75084 10.072 7.74985 11C7.74985 11.6923 7.95513 12.369 8.33973 12.9446C8.72433 13.5202 9.27098 13.9688 9.91055 14.2337C10.5501 14.4986 11.2539 14.568 11.9328 14.4329C12.6118 14.2978 13.2355 13.9645 13.725 13.475C14.2145 12.9855 14.5478 12.3618 14.6829 11.6828C14.818 11.0039 14.7486 10.3001 14.4837 9.66055C14.2188 9.02098 13.7702 8.47433 13.1946 8.08972ZM8.33326 6.63478C9.19662 6.0579 10.2116 5.75 11.25 5.75C12.6424 5.75 13.9777 6.30312 14.9623 7.28769C15.9469 8.27225 16.5 9.60761 16.5 11C16.5 12.0383 16.1921 13.0534 15.6152 13.9167C15.0383 14.7801 14.2184 15.453 13.2591 15.8504C12.2998 16.2477 11.2442 16.3517 10.2258 16.1491C9.20738 15.9465 8.27192 15.4465 7.53769 14.7123C6.80347 13.9781 6.30345 13.0426 6.10088 12.0242C5.89831 11.0058 6.00227 9.95022 6.39963 8.99091C6.79699 8.0316 7.4699 7.21166 8.33326 6.63478Z" fill="white"/>
</svg>
