<svg width="22" height="22" viewBox="0 0 22 22" fill="none" xmlns="http://www.w3.org/2000/svg">
<path d="M20.0705 0.5H2.54437C1.58672 0.5 0.75 1.18906 0.75 2.13547V19.7005C0.75 20.652 1.58672 21.5 2.54437 21.5H20.0653C21.0281 21.5 21.75 20.6464 21.75 19.7005V2.13547C21.7556 1.18906 21.0281 0.5 20.0705 0.5ZM7.25953 18.0045H4.25109V8.65063H7.25953V18.0045ZM5.85938 7.22844H5.83781C4.875 7.22844 4.25156 6.51172 4.25156 5.61453C4.25156 4.70094 4.89141 4.00109 5.87578 4.00109C6.86016 4.00109 7.4625 4.69578 7.48406 5.61453C7.48359 6.51172 6.86016 7.22844 5.85938 7.22844ZM18.2545 18.0045H15.2461V12.89C15.2461 11.6647 14.8083 10.8275 13.7198 10.8275C12.8883 10.8275 12.3961 11.39 12.1772 11.938C12.0952 12.1348 12.0731 12.403 12.0731 12.6767V18.0045H9.06469V8.65063H12.0731V9.95234C12.5109 9.32891 13.1948 8.43172 14.7863 8.43172C16.7611 8.43172 18.255 9.73344 18.255 12.5398L18.2545 18.0045Z" fill="white"/>
</svg>
