<svg width="25" height="18" viewBox="0 0 25 18" fill="none" xmlns="http://www.w3.org/2000/svg">
<path d="M24.0925 3.97453C24.0925 1.86516 22.541 0.168281 20.6238 0.168281C18.0269 0.0468748 15.3785 0 12.6719 0H11.8282C9.12817 0 6.47504 0.0468749 3.87817 0.16875C1.96567 0.16875 0.414103 1.875 0.414103 3.98437C0.296916 5.65266 0.247228 7.32141 0.250041 8.99016C0.245353 10.6589 0.298478 12.3292 0.409416 14.0011C0.409416 16.1105 1.96098 17.8214 3.87348 17.8214C6.6016 17.948 9.40004 18.0042 12.2454 17.9995C15.0954 18.0089 17.886 17.9495 20.6172 17.8214C22.5344 17.8214 24.086 16.1105 24.086 14.0011C24.1985 12.3277 24.25 10.6589 24.2454 8.98547C24.256 7.31672 24.205 5.64641 24.0925 3.97453ZM9.95317 13.5886V4.37766L16.75 8.98078L9.95317 13.5886Z" fill="white"/>
</svg>
